HIERARCHY
ROOT Hips
{
	OFFSET 0.00000 0.00000 0.00000
	CHANNELS 6 Xposition Yposition Zposition Zrotation Yrotation Xrotation 
	JOINT LHipJoint
	{
		OFFSET 0 0 0
		CHANNELS 3 Zrotation Yrotation Xrotation
		JOINT LeftHip
		{
			OFFSET 1.48831 -1.59570 0.95625
			CHANNELS 3 Zrotation Yrotation Xrotation
			JOINT LeftKnee
			{
				OFFSET 2.20856 -6.06797 0.00000
				CHANNELS 3 Zrotation Yrotation Xrotation
				JOINT LeftAnkle
				{
					OFFSET 2.62924 -7.22379 0.00000
					CHANNELS 3 Zrotation Yrotation Xrotation
					JOINT LeftToe
					{
						OFFSET 0.16802 -0.46163 2.41673
						CHANNELS 3 Zrotation Yrotation Xrotation
						End Site
						{
							OFFSET 0.00000 -0.00000 1.23760
						}
					}
				}
			}
		}
	}
	JOINT RHipJoint
	{
		OFFSET 0 0 0
		CHANNELS 3 Zrotation Yrotation Xrotation
		JOINT RightHip
		{
			OFFSET -1.56796 -1.59570 0.95625
			CHANNELS 3 Zrotation Yrotation Xrotation
			JOINT RightKnee
			{
				OFFSET -2.29239 -6.29829 0.00000
				CHANNELS 3 Zrotation Yrotation Xrotation
				JOINT RightAnkle
				{
					OFFSET -2.66963 -7.33475 0.00000
					CHANNELS 3 Zrotation Yrotation Xrotation
					JOINT RightToe
					{
						OFFSET -0.18185 -0.49964 2.34359
						CHANNELS 3 Zrotation Yrotation Xrotation
						End Site
						{
							OFFSET -0.00000 -0.00000 1.20477
						}
					}
				}
			}
		}
	}
	JOINT lowerback
	{
		OFFSET 0 0 0
		CHANNELS 3 Zrotation Yrotation Xrotation
		JOINT Chest
		{
			OFFSET 0.03505 2.15832 -0.34324
			CHANNELS 3 Zrotation Yrotation Xrotation
			JOINT Chest2
			{
				OFFSET -0.01089 2.17963 0.04689
				CHANNELS 3 Zrotation Yrotation Xrotation
				JOINT lowerneck
				{
					OFFSET 0 0 0
					CHANNELS 3 Zrotation Yrotation Xrotation
					JOINT Neck
					{
						OFFSET 0.04686 1.69404 0.22159
						CHANNELS 3 Zrotation Yrotation Xrotation
						JOINT Head
						{
							OFFSET 0.00265 1.69305 -0.01513
							CHANNELS 3 Zrotation Yrotation Xrotation
							End Site
							{
								OFFSET -0.00415 1.80215 -0.03034
							}
						}
					}
				}
				JOINT LeftCollar
				{
					OFFSET 0 0 0
					CHANNELS 3 Zrotation Yrotation Xrotation
					JOINT LeftShoulder
					{
						OFFSET 3.67184 1.11724 -0.19002
CHANNELS 3 Zrotation Xrotation Yrotation
						JOINT LeftElbow
						{
OFFSET 0 -5.177140 -0.000000
CHANNELS 3 Zrotation Xrotation Yrotation
							JOINT LeftWrist
							{
OFFSET 0 -3.436790 -0.000000
CHANNELS 3 Zrotation Xrotation Yrotation
								JOINT lhand
								{
									OFFSET 0 0 0
CHANNELS 3 Zrotation Xrotation Yrotation
									JOINT LFingers
									{
OFFSET 0 -0.573120 -0.000000
CHANNELS 3 Zrotation Xrotation Yrotation
										End Site
										{
OFFSET 0 -0.462060 -0.000000
										}
									}
								}
								JOINT LThumb
								{
OFFSET 0 0.000000 0.000000
CHANNELS 3 Zrotation Xrotation Yrotation
									End Site
									{
OFFSET 0 -0.469120 0.469120
									}
								}
							}
						}
					}
				}
				JOINT RightCollar
				{
					OFFSET 0 0 0
					CHANNELS 3 Zrotation Yrotation Xrotation
					JOINT RightShoulder
					{
						OFFSET -3.59596 0.95831 -0.26050
CHANNELS 3 Zrotation Xrotation Yrotation
						JOINT RightElbow
						{
OFFSET 0 -5.239080 -0.000000
CHANNELS 3 Zrotation Xrotation Yrotation
							JOINT RightWrist
							{
OFFSET 0 -3.464850 -0.000000
CHANNELS 3 Zrotation Xrotation Yrotation
								JOINT rhand
								{
									OFFSET 0 0 0
CHANNELS 3 Zrotation Xrotation Yrotation
									JOINT RFingers
									{
OFFSET 0 -0.608750 -0.000000
CHANNELS 3 Zrotation Xrotation Yrotation
										End Site
										{
OFFSET 0 -0.490790 -0.000000
										}
									}
								}
								JOINT RThumb
								{
OFFSET 0 0.000000 0.000000
CHANNELS 3 Zrotation Xrotation Yrotation
									End Site
									{
OFFSET 0 -0.498290 0.498290
									}
								}
							}
						}
					}
				}
			}
		}
	}
}
MOTION
Frames: 7
Frame Time: 0.008333333333333333
-0.810100 16.700000 -1.790800 -127.592000 -87.251100 123.977000 0.000000 0.000000 0.000000 -14.833800 5.516400 2.633900 0.251100 3.224500 8.904300 0.176100 6.084100 -12.403300 0.012400 -0.717900 -1.973000 0.000000 0.000000 0.000000 20.560700 4.356500 -5.657200 -2.395400 -9.645200 27.835400 -1.049200 -8.319800 -24.045500 -0.004700 -0.442000 1.214500 2.695400 0.037600 2.347400 -0.154900 -0.379100 9.402200 -1.710900 -0.127200 8.550400 2.466900 0.143900 -3.958800 1.628600 -0.638400 16.694600 0.049500 -0.178900 5.690400 0.000000 -0.000000 0.000000 7.316400 -0.988300 -29.760500 18.818400 -29.192400 4.941900 16.618500 -16.757900 -12.277200 0.000000 0.000000 0.000000 -7.125000 0.000000 0.000000 -9.579500 42.574200 -0.579100 0.000000 -0.000000 0.000000 -2.967100 -2.194400 23.779200 -18.726800 -29.077800 -4.897400 -20.364000 1.870100 8.032500 0.000000 0.000000 0.000000 7.125000 0.000000 -0.000000 5.589300 38.484200 0.900300
-0.822714 16.702213 -1.794775 -124.850960 -87.222229 121.393092 0.000000 0.000000 0.000000 -14.716478 5.344684 2.407788 0.264137 3.306160 9.132280 0.185187 6.033952 -12.507124 0.013213 -0.741506 -2.037815 0.000000 0.000000 0.000000 20.685072 4.367837 -5.733354 -2.385013 -9.625725 27.773176 -1.045625 -8.419526 -24.092454 -0.003762 -0.397547 1.092304 2.827452 0.017011 2.385003 -0.144303 -0.406477 9.362263 -1.774116 -0.131376 8.483561 2.470977 0.217344 -4.144069 1.598719 -0.533790 16.681044 0.045898 -0.126645 5.718349 0.000000 0.000000 0.000000 7.272022 -0.957507 -29.739593 19.077254 -29.514439 5.068883 16.775154 -15.929273 -14.600650 0.000000 0.000000 0.000000 -7.125000 0.000000 0.000000 -9.987161 44.963557 -0.007092 0.000000 0.000000 0.000000 -2.862581 -2.169314 23.662500 -18.693261 -29.035798 -4.881049 -20.480862 1.890887 7.928482 0.000000 0.000000 0.000000 7.125000 0.000000 0.000000 5.476250 38.382519 0.895651
-0.839327 16.703575 -1.795900 -125.145990 -87.321055 121.781005 0.000000 0.000000 0.000000 -14.825556 5.352400 2.517154 0.249499 3.213869 8.874657 0.178825 6.079577 -12.444850 0.013675 -0.754352 -2.073055 0.000000 0.000000 0.000000 20.580246 4.354802 -5.791484 -2.391901 -9.638652 27.814206 -1.057601 -8.376603 -24.157406 -0.003625 -0.389792 1.071104 2.801681 0.006374 2.402257 -0.200331 -0.418026 9.386951 -1.819610 -0.136650 8.499847 2.528155 0.269402 -4.214630 1.501369 -0.446272 16.580189 0.011422 -0.085623 5.698873 0.000000 0.000000 0.000000 7.267576 -0.902259 -30.144832 20.033711 -30.682813 5.548603 18.448666 -12.675074 -24.832825 0.000000 0.000000 0.000000 -7.125000 0.000000 0.000000 -11.978861 55.580995 3.155972 0.000000 0.000000 0.000000 -2.764284 -2.200099 23.685096 -18.701007 -29.045408 -4.884778 -20.475556 1.889281 7.879402 0.000000 0.000000 0.000000 7.125000 0.000000 0.000000 5.474645 38.330103 0.902424
-0.856354 16.704613 -1.795900 -124.936140 -87.365455 121.668282 0.000000 0.000000 0.000000 -14.869362 5.342366 2.558905 0.241462 3.162159 8.730515 0.177151 6.092884 -12.430082 0.014087 -0.765346 -2.103489 0.000000 0.000000 0.000000 20.546763 4.385594 -5.834765 -2.396475 -9.647237 27.841810 -1.062902 -8.388310 -24.209660 -0.002900 -0.350700 0.963675 2.786806 -0.011917 2.506408 -0.223016 -0.435730 9.354402 -1.834857 -0.146952 8.401619 2.544104 0.276455 -4.343598 1.437706 -0.435145 16.679526 -0.010646 -0.081735 5.752060 0.000000 0.000000 0.000000 7.225916 -0.842573 -29.657766 18.797411 -29.166186 4.931749 16.920141 -17.064140 -11.749376 0.000000 0.000000 0.000000 -7.125000 0.000000 0.000000 -9.200840 42.063718 -0.672784 0.000000 0.000000 0.000000 -2.679177 -2.151968 23.600608 -18.747090 -29.103231 -4.907269 -20.472128 1.961404 7.914858 0.000000 0.000000 0.000000 7.125000 0.000000 0.000000 5.481932 38.367482 0.898652
-0.875507 16.706551 -1.795499 -124.750482 -87.348735 121.581015 0.000000 0.000000 0.000000 -14.853541 5.350259 2.551595 0.238750 3.144598 8.681494 0.180052 6.069338 -12.455616 0.013500 -0.750449 -2.062347 0.000000 0.000000 0.000000 20.569710 4.435856 -5.849104 -2.395098 -9.644647 27.833341 -1.065849 -8.412847 -24.252391 -0.002450 -0.320588 0.880868 2.811152 -0.003744 2.520486 -0.247397 -0.423746 9.357784 -1.873649 -0.138247 8.397876 2.581898 0.296455 -4.299224 1.421906 -0.406694 16.644397 -0.020097 -0.067296 5.733553 0.000000 0.000000 0.000000 7.221036 -0.811197 -29.428957 18.818492 -29.192541 4.941996 16.555442 -16.636668 -12.211676 0.000000 0.000000 0.000000 -7.125000 0.000000 0.000000 -9.621203 42.500925 -0.599306 0.000000 0.000000 0.000000 -2.546175 -2.126904 23.476070 -18.794641 -29.162689 -4.930346 -20.468339 1.931067 7.848402 0.000000 0.000000 0.000000 7.125000 0.000000 0.000000 5.476960 38.296852 0.907300
-0.900810 16.709463 -1.792537 -125.443257 -87.277041 122.388673 0.000000 0.000000 0.000000 -14.829414 5.427479 2.539641 0.236400 3.128973 8.637995 0.185003 6.037773 -12.508476 0.012800 -0.731476 -2.010239 0.000000 0.000000 0.000000 20.603505 4.495772 -5.856348 -2.389434 -9.634144 27.799804 -1.065688 -8.406090 -24.245805 -0.002012 -0.288282 0.792065 2.830015 0.028661 2.471027 -0.250890 -0.378519 9.325528 -1.885690 -0.113378 8.393575 2.610871 0.301056 -4.266607 1.409115 -0.402871 16.672161 -0.028737 -0.065117 5.736732 0.000000 0.000000 0.000000 7.198692 -0.773462 -29.283706 18.813456 -29.186195 4.939578 16.527500 -16.580153 -12.342170 0.000000 0.000000 0.000000 -7.125000 0.000000 0.000000 -9.674367 42.631358 -0.571219 0.000000 0.000000 0.000000 -2.435616 -2.092011 23.314318 -18.748629 -29.105114 -4.907958 -20.560939 1.944483 7.754261 0.000000 0.000000 0.000000 7.125000 0.000000 0.000000 5.386248 38.203548 0.904524
-0.928263 16.710525 -1.789524 -125.244913 -87.122503 122.339481 0.000000 0.000000 0.000000 -14.690576 5.471452 2.407946 0.244825 3.184225 8.792002 0.205828 5.872577 -12.694509 0.008200 -0.584676 -1.606503 0.000000 0.000000 0.000000 20.750736 4.605968 -5.842006 -2.376149 -9.609124 27.719997 -1.064975 -8.434478 -24.261791 -0.001575 -0.257245 0.706767 2.919859 0.046202 2.398082 -0.236098 -0.352443 9.242255 -1.918600 -0.093149 8.346061 2.459292 0.159781 -4.036558 1.545522 -0.571436 16.237375 0.029769 -0.149784 5.560466 0.000000 0.000000 0.000000 7.166213 -0.694440 -29.057993 18.824573 -29.200122 4.944949 16.594223 -16.582982 -12.273092 0.000000 0.000000 0.000000 -7.125000 0.000000 0.000000 -9.600140 42.567595 -0.582040 0.000000 0.000000 0.000000 -2.275828 -1.962898 23.106852 -18.811923 -29.184235 -4.938773 -20.578242 1.924764 7.783417 0.000000 0.000000 0.000000 7.125000 0.000000 0.000000 5.375055 38.235715 0.898403
